<svg width="36" height="34" viewBox="0 0 36 34" fill="none" xmlns="http://www.w3.org/2000/svg">
							<path d="M35.5415 10.503L25.3864 1.26881C25.0384 0.952442 24.5409 0.862449 24.1049 1.03604L0.774858 10.3186C0.273094 10.5183 -0.0332761 11.0187 0.00393412 11.5462C0.0022949 11.5724 0 11.5983 0 11.6247V16.883C0 17.5621 0.550285 18.1124 1.22941 18.1124C3.54137 18.1124 5.42188 19.9933 5.42188 22.305C5.42188 24.6168 3.54137 26.498 1.22941 26.498C0.550285 26.498 0 27.0483 0 27.7274V31.8217C0 32.5008 0.550285 33.0511 1.22941 33.0511H34.7675C35.4466 33.0511 35.9969 32.5008 35.9969 31.8217V11.6247C35.9969 11.6078 35.9952 11.5913 35.9943 11.5744C35.9977 11.5369 36 11.4992 36 11.4608C36 11.0736 35.821 10.7284 35.5415 10.503ZM24.3001 3.60453L31.5879 10.2316H7.64482L24.3001 3.60453ZM33.5381 30.5923H2.45883V28.8427C5.54105 28.2644 7.8807 25.5528 7.8807 22.305C7.8807 19.0573 5.54105 16.3458 2.45883 15.7675V12.6902H33.5381V30.5923Z" fill="#4cb32b"></path>
							<path d="M28.5377 20.2695C29.4462 20.2695 30.1827 19.533 30.1827 18.6245C30.1827 17.716 29.4462 16.9796 28.5377 16.9796C27.6292 16.9796 26.8928 17.716 26.8928 18.6245C26.8928 19.533 27.6292 20.2695 28.5377 20.2695Z" fill="#4cb32b"></path>
							<path d="M12.5599 21.8413C13.5051 21.8413 14.2713 21.0751 14.2713 20.13C14.2713 19.1848 13.5051 18.4186 12.5599 18.4186C11.6148 18.4186 10.8486 19.1848 10.8486 20.13C10.8486 21.0751 11.6148 21.8413 12.5599 21.8413Z" fill="#4cb32b"></path>
							<path d="M24.64 26.7724C25.93 26.7724 26.9758 25.7266 26.9758 24.4365C26.9758 23.1465 25.93 22.1006 24.64 22.1006C23.3499 22.1006 22.3041 23.1465 22.3041 24.4365C22.3041 25.7266 23.3499 26.7724 24.64 26.7724Z" fill="white"></path>
							<path d="M16.081 28.287C17.1506 28.287 18.0177 27.4199 18.0177 26.3503C18.0177 25.2807 17.1506 24.4136 16.081 24.4136C15.0113 24.4136 14.1442 25.2807 14.1442 26.3503C14.1442 27.4199 15.0113 28.287 16.081 28.287Z" fill="#4cb32b"></path>
							<path d="M20.1386 18.9847C21.2561 18.9847 22.1621 18.0787 22.1621 16.9612C22.1621 15.8437 21.2561 14.9378 20.1386 14.9378C19.0211 14.9378 18.1152 15.8437 18.1152 16.9612C18.1152 18.0787 19.0211 18.9847 20.1386 18.9847Z" fill="#4cb32b"></path>
						</svg>